<svg width="313" height="177" viewBox="0 0 313 177" fill="none" xmlns="http://www.w3.org/2000/svg">
<path d="M312 18.7072C312 19.1145 311.829 19.577 311.375 20.1047C310.917 20.6375 310.201 21.1991 309.201 21.7766C307.2 22.9315 304.201 24.0704 300.27 25.1685C292.419 27.3613 281.022 29.3446 266.898 31.0131C238.66 34.349 199.627 36.4143 156.5 36.4143C113.373 36.4143 74.3399 34.349 46.1015 31.0131C31.9778 29.3446 20.5815 27.3613 12.7299 25.1685C8.79854 24.0704 5.79972 22.9315 3.79851 21.7766C2.7989 21.1991 2.08273 20.6375 1.625 20.1047C1.17127 19.577 1 19.1145 1 18.7072C1 18.2998 1.17127 17.8374 1.625 17.3096C2.08273 16.7769 2.7989 16.2152 3.79851 15.6377C5.79972 14.4829 8.79854 13.3438 12.7299 12.2459C20.5815 10.0531 31.9778 8.06967 46.1015 6.40119C74.3399 3.06522 113.373 1 156.5 1C199.627 1 238.66 3.06522 266.898 6.40119C281.022 8.06967 292.419 10.0531 300.27 12.2459C304.201 13.3438 307.2 14.4829 309.201 15.6377C310.201 16.2152 310.917 16.7769 311.375 17.3096C311.829 17.8374 312 18.2998 312 18.7072Z" stroke="white" stroke-width="1.5"/>
<path d="M312 64.5394C312 66.1169 311.09 67.7716 309.088 69.4853C307.092 71.1941 304.104 72.8768 300.185 74.4994C292.352 77.7436 280.973 80.6813 266.856 83.1543C238.635 88.0983 199.618 91.1612 156.5 91.1612C113.382 91.1612 74.3649 88.0983 46.1436 83.1543C32.0269 80.6813 20.6476 77.7436 12.815 74.4994C8.8957 72.8768 5.90789 71.1941 3.91168 69.4853C1.91046 67.7716 1 66.1169 1 64.5394C1 62.9618 1.91046 61.3062 3.91168 59.5934C5.90789 57.8847 8.8957 56.2018 12.815 54.5784C20.6476 51.3344 32.0269 48.3966 46.1436 45.9236C74.3649 40.9795 113.382 37.9175 156.5 37.9175C199.618 37.9175 238.635 40.9795 266.856 45.9236C280.973 48.3966 292.352 51.3344 300.185 54.5784C304.104 56.2018 307.092 57.8847 309.088 59.5934C311.09 61.3062 312 62.9618 312 64.5394Z" stroke="white" stroke-width="1.5"/>
<path d="M312 134.387C312 139.852 307.915 145.243 300.066 150.288C292.251 155.31 280.892 159.863 266.789 163.696C238.594 171.361 199.6 176.111 156.5 176.111C113.4 176.111 74.406 171.361 46.2107 163.696C32.108 159.863 20.7487 155.31 12.9342 150.288C5.08456 145.243 1 139.852 1 134.387C1 128.921 5.08456 123.53 12.9342 118.485C20.7487 113.462 32.108 108.911 46.2107 105.076C74.406 97.4121 113.4 92.6625 156.5 92.6625C199.6 92.6625 238.594 97.4121 266.789 105.076C280.892 108.911 292.251 113.462 300.066 118.485C307.915 123.53 312 128.921 312 134.387Z" stroke="white" stroke-width="1.5"/>
<path d="M156.5 18.5082V134.151" stroke="white" stroke-width="1.5"/>
</svg>
