<svg width="152" height="73" viewBox="0 0 152 73" fill="none" xmlns="http://www.w3.org/2000/svg">
<path id="Vector" fill-rule="evenodd" clip-rule="evenodd" d="M129.098 60.467C142.724 54.012 150.5 45.39 150.5 36.366C150.5 27.342 142.724 18.72 129.098 12.266C115.587 5.86596 96.8149 1.86597 75.9999 1.86597C55.1847 1.86597 36.4134 5.86596 22.902 12.266C9.2762 18.72 1.5 27.342 1.5 36.366C1.5 45.39 9.2762 54.012 22.902 60.467C36.4134 66.867 55.1847 70.866 75.9999 70.866C96.8149 70.866 115.587 66.867 129.098 60.467ZM75.9999 72.366C117.974 72.366 152 56.249 152 36.366C152 16.484 117.974 0.365967 75.9999 0.365967C34.0264 0.365967 0 16.484 0 36.366C0 56.249 34.0264 72.366 75.9999 72.366Z" fill="white"/>
</svg>
